STARTFONT 2.1
FONT -envy-code_b-medium-r-normal--14-130-75-75-C-70-iso8859-1
SIZE 14 75 75
FONTBOUNDINGBOX 7 14 0 -3
STARTPROPERTIES 16
FOUNDRY "envy"
FAMILY_NAME "code_b"
WEIGHT_NAME "medium"
SLANT "r"
SETWIDTH_NAME "normal"
ADDSTYLE_NAME ""
PIXEL_SIZE 14
POINT_SIZE 130
RESOLUTION_X 75
RESOLUTION_Y 75
FONT_ASCENT 11
FONT_DESCENT 3
AVERAGE_WIDTH 70
SPACING "c"
CHARSET_REGISTRY "iso8859"
CHARSET_ENCODING "1"
ENDPROPERTIES
CHARS 190
STARTCHAR U+0020
ENCODING 32
SWIDTH 480 0
DWIDTH 7 0
BBX 7 14 0 -3
BITMAP
00
00
00
00
00
00
00
00
00
00
00
00
00
00
ENDCHAR
STARTCHAR U+0021
ENCODING 33
SWIDTH 480 0
DWIDTH 7 0
BBX 7 14 0 -3
BITMAP
00
00
10
10
10
10
10
10
00
10
10
00
00
00
ENDCHAR
STARTCHAR U+0022
ENCODING 34
SWIDTH 480 0
DWIDTH 7 0
BBX 7 14 0 -3
BITMAP
00
00
48
48
48
00
00
00
00
00
00
00
00
00
ENDCHAR
STARTCHAR U+0023
ENCODING 35
SWIDTH 480 0
DWIDTH 7 0
BBX 7 14 0 -3
BITMAP
00
00
00
00
28
7C
28
28
7C
28
00
00
00
00
ENDCHAR
STARTCHAR U+0024
ENCODING 36
SWIDTH 480 0
DWIDTH 7 0
BBX 7 14 0 -3
BITMAP
00
00
10
3C
50
50
30
18
14
14
78
10
00
00
ENDCHAR
STARTCHAR U+0025
ENCODING 37
SWIDTH 480 0
DWIDTH 7 0
BBX 7 14 0 -3
BITMAP
00
00
20
54
58
28
10
28
34
54
08
00
00
00
ENDCHAR
STARTCHAR U+0026
ENCODING 38
SWIDTH 480 0
DWIDTH 7 0
BBX 7 14 0 -3
BITMAP
00
00
30
48
48
48
30
4C
48
48
34
00
00
00
ENDCHAR
STARTCHAR U+0027
ENCODING 39
SWIDTH 480 0
DWIDTH 7 0
BBX 7 14 0 -3
BITMAP
00
00
10
10
10
00
00
00
00
00
00
00
00
00
ENDCHAR
STARTCHAR U+0028
ENCODING 40
SWIDTH 480 0
DWIDTH 7 0
BBX 7 14 0 -3
BITMAP
00
08
10
10
20
20
20
20
20
20
10
10
08
00
ENDCHAR
STARTCHAR U+0029
ENCODING 41
SWIDTH 480 0
DWIDTH 7 0
BBX 7 14 0 -3
BITMAP
00
20
10
10
08
08
08
08
08
08
10
10
20
00
ENDCHAR
STARTCHAR U+002A
ENCODING 42
SWIDTH 480 0
DWIDTH 7 0
BBX 7 14 0 -3
BITMAP
00
00
10
54
38
54
10
00
00
00
00
00
00
00
ENDCHAR
STARTCHAR U+002B
ENCODING 43
SWIDTH 480 0
DWIDTH 7 0
BBX 7 14 0 -3
BITMAP
00
00
00
00
10
10
7C
10
10
00
00
00
00
00
ENDCHAR
STARTCHAR U+002C
ENCODING 44
SWIDTH 480 0
DWIDTH 7 0
BBX 7 14 0 -3
BITMAP
00
00
00
00
00
00
00
00
00
30
30
60
00
00
ENDCHAR
STARTCHAR U+002D
ENCODING 45
SWIDTH 480 0
DWIDTH 7 0
BBX 7 14 0 -3
BITMAP
00
00
00
00
00
00
7C
00
00
00
00
00
00
00
ENDCHAR
STARTCHAR U+002E
ENCODING 46
SWIDTH 480 0
DWIDTH 7 0
BBX 7 14 0 -3
BITMAP
00
00
00
00
00
00
00
00
00
30
30
00
00
00
ENDCHAR
STARTCHAR U+002F
ENCODING 47
SWIDTH 480 0
DWIDTH 7 0
BBX 7 14 0 -3
BITMAP
00
00
04
04
08
08
10
10
20
20
40
40
00
00
ENDCHAR
STARTCHAR U+0030
ENCODING 48
SWIDTH 480 0
DWIDTH 7 0
BBX 7 14 0 -3
BITMAP
00
00
38
44
44
4C
54
64
44
44
38
00
00
00
ENDCHAR
STARTCHAR U+0031
ENCODING 49
SWIDTH 480 0
DWIDTH 7 0
BBX 7 14 0 -3
BITMAP
00
00
10
30
10
10
10
10
10
10
38
00
00
00
ENDCHAR
STARTCHAR U+0032
ENCODING 50
SWIDTH 480 0
DWIDTH 7 0
BBX 7 14 0 -3
BITMAP
00
00
38
44
04
08
10
20
40
40
7C
00
00
00
ENDCHAR
STARTCHAR U+0033
ENCODING 51
SWIDTH 480 0
DWIDTH 7 0
BBX 7 14 0 -3
BITMAP
00
00
38
44
04
04
18
04
04
44
38
00
00
00
ENDCHAR
STARTCHAR U+0034
ENCODING 52
SWIDTH 480 0
DWIDTH 7 0
BBX 7 14 0 -3
BITMAP
00
00
08
18
28
28
48
48
7C
08
08
00
00
00
ENDCHAR
STARTCHAR U+0035
ENCODING 53
SWIDTH 480 0
DWIDTH 7 0
BBX 7 14 0 -3
BITMAP
00
00
7C
40
40
40
78
04
04
04
78
00
00
00
ENDCHAR
STARTCHAR U+0036
ENCODING 54
SWIDTH 480 0
DWIDTH 7 0
BBX 7 14 0 -3
BITMAP
00
00
08
10
20
40
78
44
44
44
38
00
00
00
ENDCHAR
STARTCHAR U+0037
ENCODING 55
SWIDTH 480 0
DWIDTH 7 0
BBX 7 14 0 -3
BITMAP
00
00
7C
04
04
08
08
10
10
20
20
00
00
00
ENDCHAR
STARTCHAR U+0038
ENCODING 56
SWIDTH 480 0
DWIDTH 7 0
BBX 7 14 0 -3
BITMAP
00
00
38
44
44
44
38
44
44
44
38
00
00
00
ENDCHAR
STARTCHAR U+0039
ENCODING 57
SWIDTH 480 0
DWIDTH 7 0
BBX 7 14 0 -3
BITMAP
00
00
38
44
44
44
38
08
10
20
40
00
00
00
ENDCHAR
STARTCHAR U+003A
ENCODING 58
SWIDTH 480 0
DWIDTH 7 0
BBX 7 14 0 -3
BITMAP
00
00
00
00
00
30
30
00
00
30
30
00
00
00
ENDCHAR
STARTCHAR U+003B
ENCODING 59
SWIDTH 480 0
DWIDTH 7 0
BBX 7 14 0 -3
BITMAP
00
00
00
00
00
30
30
00
00
30
30
60
00
00
ENDCHAR
STARTCHAR U+003C
ENCODING 60
SWIDTH 480 0
DWIDTH 7 0
BBX 7 14 0 -3
BITMAP
00
00
00
08
10
20
40
20
10
08
00
00
00
00
ENDCHAR
STARTCHAR U+003D
ENCODING 61
SWIDTH 480 0
DWIDTH 7 0
BBX 7 14 0 -3
BITMAP
00
00
00
00
00
FC
00
FC
00
00
00
00
00
00
ENDCHAR
STARTCHAR U+003E
ENCODING 62
SWIDTH 480 0
DWIDTH 7 0
BBX 7 14 0 -3
BITMAP
00
00
00
40
20
10
08
10
20
40
00
00
00
00
ENDCHAR
STARTCHAR U+003F
ENCODING 63
SWIDTH 480 0
DWIDTH 7 0
BBX 7 14 0 -3
BITMAP
00
00
38
44
44
04
08
10
00
10
10
00
00
00
ENDCHAR
STARTCHAR U+0040
ENCODING 64
SWIDTH 480 0
DWIDTH 7 0
BBX 7 14 0 -3
BITMAP
00
38
44
82
9A
AA
AA
AA
AA
9C
80
40
3C
00
ENDCHAR
STARTCHAR U+0041
ENCODING 65
SWIDTH 480 0
DWIDTH 7 0
BBX 7 14 0 -3
BITMAP
00
00
38
44
44
44
7C
44
44
44
44
00
00
00
ENDCHAR
STARTCHAR U+0042
ENCODING 66
SWIDTH 480 0
DWIDTH 7 0
BBX 7 14 0 -3
BITMAP
00
00
78
44
44
44
78
44
44
44
78
00
00
00
ENDCHAR
STARTCHAR U+0043
ENCODING 67
SWIDTH 480 0
DWIDTH 7 0
BBX 7 14 0 -3
BITMAP
00
00
1C
20
40
40
40
40
40
20
1C
00
00
00
ENDCHAR
STARTCHAR U+0044
ENCODING 68
SWIDTH 480 0
DWIDTH 7 0
BBX 7 14 0 -3
BITMAP
00
00
70
48
44
44
44
44
44
48
70
00
00
00
ENDCHAR
STARTCHAR U+0045
ENCODING 69
SWIDTH 480 0
DWIDTH 7 0
BBX 7 14 0 -3
BITMAP
00
00
7C
40
40
40
78
40
40
40
7C
00
00
00
ENDCHAR
STARTCHAR U+0046
ENCODING 70
SWIDTH 480 0
DWIDTH 7 0
BBX 7 14 0 -3
BITMAP
00
00
7C
40
40
40
78
40
40
40
40
00
00
00
ENDCHAR
STARTCHAR U+0047
ENCODING 71
SWIDTH 480 0
DWIDTH 7 0
BBX 7 14 0 -3
BITMAP
00
00
1C
20
40
40
4C
44
44
24
1C
00
00
00
ENDCHAR
STARTCHAR U+0048
ENCODING 72
SWIDTH 480 0
DWIDTH 7 0
BBX 7 14 0 -3
BITMAP
00
00
44
44
44
44
7C
44
44
44
44
00
00
00
ENDCHAR
STARTCHAR U+0049
ENCODING 73
SWIDTH 480 0
DWIDTH 7 0
BBX 7 14 0 -3
BITMAP
00
00
7C
10
10
10
10
10
10
10
7C
00
00
00
ENDCHAR
STARTCHAR U+004A
ENCODING 74
SWIDTH 480 0
DWIDTH 7 0
BBX 7 14 0 -3
BITMAP
00
00
04
04
04
04
04
04
04
44
38
00
00
00
ENDCHAR
STARTCHAR U+004B
ENCODING 75
SWIDTH 480 0
DWIDTH 7 0
BBX 7 14 0 -3
BITMAP
00
00
44
44
48
50
60
50
48
44
44
00
00
00
ENDCHAR
STARTCHAR U+004C
ENCODING 76
SWIDTH 480 0
DWIDTH 7 0
BBX 7 14 0 -3
BITMAP
00
00
40
40
40
40
40
40
40
40
7C
00
00
00
ENDCHAR
STARTCHAR U+004D
ENCODING 77
SWIDTH 480 0
DWIDTH 7 0
BBX 7 14 0 -3
BITMAP
00
00
44
44
6C
6C
54
54
44
44
44
00
00
00
ENDCHAR
STARTCHAR U+004E
ENCODING 78
SWIDTH 480 0
DWIDTH 7 0
BBX 7 14 0 -3
BITMAP
00
00
44
44
64
64
54
54
4C
4C
44
00
00
00
ENDCHAR
STARTCHAR U+004F
ENCODING 79
SWIDTH 480 0
DWIDTH 7 0
BBX 7 14 0 -3
BITMAP
00
00
38
44
44
44
44
44
44
44
38
00
00
00
ENDCHAR
STARTCHAR U+0050
ENCODING 80
SWIDTH 480 0
DWIDTH 7 0
BBX 7 14 0 -3
BITMAP
00
00
78
44
44
44
78
40
40
40
40
00
00
00
ENDCHAR
STARTCHAR U+0051
ENCODING 81
SWIDTH 480 0
DWIDTH 7 0
BBX 7 14 0 -3
BITMAP
00
00
38
44
44
44
44
44
44
48
34
04
00
00
ENDCHAR
STARTCHAR U+0052
ENCODING 82
SWIDTH 480 0
DWIDTH 7 0
BBX 7 14 0 -3
BITMAP
00
00
78
44
44
44
78
50
48
44
44
00
00
00
ENDCHAR
STARTCHAR U+0053
ENCODING 83
SWIDTH 480 0
DWIDTH 7 0
BBX 7 14 0 -3
BITMAP
00
00
3C
40
40
20
10
08
04
04
78
00
00
00
ENDCHAR
STARTCHAR U+0054
ENCODING 84
SWIDTH 480 0
DWIDTH 7 0
BBX 7 14 0 -3
BITMAP
00
00
7C
10
10
10
10
10
10
10
10
00
00
00
ENDCHAR
STARTCHAR U+0055
ENCODING 85
SWIDTH 480 0
DWIDTH 7 0
BBX 7 14 0 -3
BITMAP
00
00
44
44
44
44
44
44
44
44
38
00
00
00
ENDCHAR
STARTCHAR U+0056
ENCODING 86
SWIDTH 480 0
DWIDTH 7 0
BBX 7 14 0 -3
BITMAP
00
00
44
44
44
44
28
28
28
10
10
00
00
00
ENDCHAR
STARTCHAR U+0057
ENCODING 87
SWIDTH 480 0
DWIDTH 7 0
BBX 7 14 0 -3
BITMAP
00
00
44
44
44
44
44
54
54
54
28
00
00
00
ENDCHAR
STARTCHAR U+0058
ENCODING 88
SWIDTH 480 0
DWIDTH 7 0
BBX 7 14 0 -3
BITMAP
00
00
44
44
28
28
10
28
28
44
44
00
00
00
ENDCHAR
STARTCHAR U+0059
ENCODING 89
SWIDTH 480 0
DWIDTH 7 0
BBX 7 14 0 -3
BITMAP
00
00
44
44
44
28
28
10
10
10
10
00
00
00
ENDCHAR
STARTCHAR U+005A
ENCODING 90
SWIDTH 480 0
DWIDTH 7 0
BBX 7 14 0 -3
BITMAP
00
00
7C
04
04
08
10
20
40
40
7C
00
00
00
ENDCHAR
STARTCHAR U+005B
ENCODING 91
SWIDTH 480 0
DWIDTH 7 0
BBX 7 14 0 -3
BITMAP
00
38
20
20
20
20
20
20
20
20
20
20
38
00
ENDCHAR
STARTCHAR U+005C
ENCODING 92
SWIDTH 480 0
DWIDTH 7 0
BBX 7 14 0 -3
BITMAP
00
00
40
40
20
20
10
10
08
08
04
04
00
00
ENDCHAR
STARTCHAR U+005D
ENCODING 93
SWIDTH 480 0
DWIDTH 7 0
BBX 7 14 0 -3
BITMAP
00
38
08
08
08
08
08
08
08
08
08
08
38
00
ENDCHAR
STARTCHAR U+005E
ENCODING 94
SWIDTH 480 0
DWIDTH 7 0
BBX 7 14 0 -3
BITMAP
00
00
10
10
28
28
44
00
00
00
00
00
00
00
ENDCHAR
STARTCHAR U+005F
ENCODING 95
SWIDTH 480 0
DWIDTH 7 0
BBX 7 14 0 -3
BITMAP
00
00
00
00
00
00
00
00
00
00
00
00
00
FE
ENDCHAR
STARTCHAR U+0060
ENCODING 96
SWIDTH 480 0
DWIDTH 7 0
BBX 7 14 0 -3
BITMAP
00
00
60
30
00
00
00
00
00
00
00
00
00
00
ENDCHAR
STARTCHAR U+0061
ENCODING 97
SWIDTH 480 0
DWIDTH 7 0
BBX 7 14 0 -3
BITMAP
00
00
00
00
38
04
04
3C
44
44
3C
00
00
00
ENDCHAR
STARTCHAR U+0062
ENCODING 98
SWIDTH 480 0
DWIDTH 7 0
BBX 7 14 0 -3
BITMAP
00
00
40
40
78
44
44
44
44
44
78
00
00
00
ENDCHAR
STARTCHAR U+0063
ENCODING 99
SWIDTH 480 0
DWIDTH 7 0
BBX 7 14 0 -3
BITMAP
00
00
00
00
1C
20
40
40
40
20
1C
00
00
00
ENDCHAR
STARTCHAR U+0064
ENCODING 100
SWIDTH 480 0
DWIDTH 7 0
BBX 7 14 0 -3
BITMAP
00
00
04
04
3C
44
44
44
44
44
3C
00
00
00
ENDCHAR
STARTCHAR U+0065
ENCODING 101
SWIDTH 480 0
DWIDTH 7 0
BBX 7 14 0 -3
BITMAP
00
00
00
00
38
44
44
7C
40
40
3C
00
00
00
ENDCHAR
STARTCHAR U+0066
ENCODING 102
SWIDTH 480 0
DWIDTH 7 0
BBX 7 14 0 -3
BITMAP
00
00
1C
20
20
78
20
20
20
20
20
00
00
00
ENDCHAR
STARTCHAR U+0067
ENCODING 103
SWIDTH 480 0
DWIDTH 7 0
BBX 7 14 0 -3
BITMAP
00
00
00
00
3C
44
44
44
44
44
3C
04
44
38
ENDCHAR
STARTCHAR U+0068
ENCODING 104
SWIDTH 480 0
DWIDTH 7 0
BBX 7 14 0 -3
BITMAP
00
00
40
40
58
64
44
44
44
44
44
00
00
00
ENDCHAR
STARTCHAR U+0069
ENCODING 105
SWIDTH 480 0
DWIDTH 7 0
BBX 7 14 0 -3
BITMAP
00
00
10
00
30
10
10
10
10
10
10
00
00
00
ENDCHAR
STARTCHAR U+006A
ENCODING 106
SWIDTH 480 0
DWIDTH 7 0
BBX 7 14 0 -3
BITMAP
00
00
08
00
18
08
08
08
08
08
08
08
30
00
ENDCHAR
STARTCHAR U+006B
ENCODING 107
SWIDTH 480 0
DWIDTH 7 0
BBX 7 14 0 -3
BITMAP
00
00
40
40
44
48
50
60
50
48
44
00
00
00
ENDCHAR
STARTCHAR U+006C
ENCODING 108
SWIDTH 480 0
DWIDTH 7 0
BBX 7 14 0 -3
BITMAP
00
00
30
10
10
10
10
10
10
10
10
00
00
00
ENDCHAR
STARTCHAR U+006D
ENCODING 109
SWIDTH 480 0
DWIDTH 7 0
BBX 7 14 0 -3
BITMAP
00
00
00
00
68
54
54
54
54
54
54
00
00
00
ENDCHAR
STARTCHAR U+006E
ENCODING 110
SWIDTH 480 0
DWIDTH 7 0
BBX 7 14 0 -3
BITMAP
00
00
00
00
58
64
44
44
44
44
44
00
00
00
ENDCHAR
STARTCHAR U+006F
ENCODING 111
SWIDTH 480 0
DWIDTH 7 0
BBX 7 14 0 -3
BITMAP
00
00
00
00
38
44
44
44
44
44
38
00
00
00
ENDCHAR
STARTCHAR U+0070
ENCODING 112
SWIDTH 480 0
DWIDTH 7 0
BBX 7 14 0 -3
BITMAP
00
00
00
00
78
44
44
44
44
44
78
40
40
40
ENDCHAR
STARTCHAR U+0071
ENCODING 113
SWIDTH 480 0
DWIDTH 7 0
BBX 7 14 0 -3
BITMAP
00
00
00
00
3C
44
44
44
44
44
3C
04
04
04
ENDCHAR
STARTCHAR U+0072
ENCODING 114
SWIDTH 480 0
DWIDTH 7 0
BBX 7 14 0 -3
BITMAP
00
00
00
00
58
64
40
40
40
40
40
00
00
00
ENDCHAR
STARTCHAR U+0073
ENCODING 115
SWIDTH 480 0
DWIDTH 7 0
BBX 7 14 0 -3
BITMAP
00
00
00
00
3C
40
40
38
04
04
78
00
00
00
ENDCHAR
STARTCHAR U+0074
ENCODING 116
SWIDTH 480 0
DWIDTH 7 0
BBX 7 14 0 -3
BITMAP
00
00
20
20
78
20
20
20
20
20
1C
00
00
00
ENDCHAR
STARTCHAR U+0075
ENCODING 117
SWIDTH 480 0
DWIDTH 7 0
BBX 7 14 0 -3
BITMAP
00
00
00
00
44
44
44
44
44
4C
34
00
00
00
ENDCHAR
STARTCHAR U+0076
ENCODING 118
SWIDTH 480 0
DWIDTH 7 0
BBX 7 14 0 -3
BITMAP
00
00
00
00
44
44
44
28
28
10
10
00
00
00
ENDCHAR
STARTCHAR U+0077
ENCODING 119
SWIDTH 480 0
DWIDTH 7 0
BBX 7 14 0 -3
BITMAP
00
00
00
00
44
44
44
54
54
54
28
00
00
00
ENDCHAR
STARTCHAR U+0078
ENCODING 120
SWIDTH 480 0
DWIDTH 7 0
BBX 7 14 0 -3
BITMAP
00
00
00
00
44
44
28
10
28
44
44
00
00
00
ENDCHAR
STARTCHAR U+0079
ENCODING 121
SWIDTH 480 0
DWIDTH 7 0
BBX 7 14 0 -3
BITMAP
00
00
00
00
44
44
44
28
28
28
10
10
20
40
ENDCHAR
STARTCHAR U+007A
ENCODING 122
SWIDTH 480 0
DWIDTH 7 0
BBX 7 14 0 -3
BITMAP
00
00
00
00
7C
04
08
10
20
40
7C
00
00
00
ENDCHAR
STARTCHAR U+007B
ENCODING 123
SWIDTH 480 0
DWIDTH 7 0
BBX 7 14 0 -3
BITMAP
00
0C
10
10
10
20
C0
20
10
10
10
10
0C
00
ENDCHAR
STARTCHAR U+007C
ENCODING 124
SWIDTH 480 0
DWIDTH 7 0
BBX 7 14 0 -3
BITMAP
00
10
10
10
10
10
10
10
10
10
10
10
10
00
ENDCHAR
STARTCHAR U+007D
ENCODING 125
SWIDTH 480 0
DWIDTH 7 0
BBX 7 14 0 -3
BITMAP
00
C0
20
20
20
10
0C
10
20
20
20
20
C0
00
ENDCHAR
STARTCHAR U+007E
ENCODING 126
SWIDTH 480 0
DWIDTH 7 0
BBX 7 14 0 -3
BITMAP
00
00
00
00
00
24
54
48
00
00
00
00
00
00
ENDCHAR
STARTCHAR U+00A1
ENCODING 161
SWIDTH 480 0
DWIDTH 7 0
BBX 7 14 0 -3
BITMAP
00
00
10
10
00
10
10
10
10
10
10
00
00
00
ENDCHAR
STARTCHAR U+00A2
ENCODING 162
SWIDTH 480 0
DWIDTH 7 0
BBX 7 14 0 -3
BITMAP
00
00
00
04
3C
48
48
50
50
50
3C
20
00
00
ENDCHAR
STARTCHAR U+00A3
ENCODING 163
SWIDTH 480 0
DWIDTH 7 0
BBX 7 14 0 -3
BITMAP
00
00
18
24
20
20
78
20
20
20
7C
00
00
00
ENDCHAR
STARTCHAR U+00A4
ENCODING 164
SWIDTH 480 0
DWIDTH 7 0
BBX 7 14 0 -3
BITMAP
00
00
00
00
54
28
44
44
28
54
00
00
00
00
ENDCHAR
STARTCHAR U+00A5
ENCODING 165
SWIDTH 480 0
DWIDTH 7 0
BBX 7 14 0 -3
BITMAP
00
00
44
44
44
28
28
7C
10
7C
10
00
00
00
ENDCHAR
STARTCHAR U+00A6
ENCODING 166
SWIDTH 480 0
DWIDTH 7 0
BBX 7 14 0 -3
BITMAP
00
10
10
10
10
10
00
00
10
10
10
10
10
00
ENDCHAR
STARTCHAR U+00A7
ENCODING 167
SWIDTH 480 0
DWIDTH 7 0
BBX 7 14 0 -3
BITMAP
00
00
1C
20
20
30
48
44
24
18
08
08
70
00
ENDCHAR
STARTCHAR U+00A8
ENCODING 168
SWIDTH 480 0
DWIDTH 7 0
BBX 7 14 0 -3
BITMAP
00
00
6C
00
00
00
00
00
00
00
00
00
00
00
ENDCHAR
STARTCHAR U+00A9
ENCODING 169
SWIDTH 480 0
DWIDTH 7 0
BBX 7 14 0 -3
BITMAP
00
00
38
44
9A
A2
A2
A2
9A
44
38
00
00
00
ENDCHAR
STARTCHAR U+00AA
ENCODING 170
SWIDTH 480 0
DWIDTH 7 0
BBX 7 14 0 -3
BITMAP
00
00
38
04
3C
44
3C
00
7C
00
00
00
00
00
ENDCHAR
STARTCHAR U+00AB
ENCODING 171
SWIDTH 480 0
DWIDTH 7 0
BBX 7 14 0 -3
BITMAP
00
00
00
00
00
24
48
90
48
24
00
00
00
00
ENDCHAR
STARTCHAR U+00AC
ENCODING 172
SWIDTH 480 0
DWIDTH 7 0
BBX 7 14 0 -3
BITMAP
00
00
00
00
00
7C
04
00
00
00
00
00
00
00
ENDCHAR
STARTCHAR U+00AD
ENCODING 173
SWIDTH 480 0
DWIDTH 7 0
BBX 7 14 0 -3
BITMAP
00
00
00
00
00
00
7C
00
00
00
00
00
00
00
ENDCHAR
STARTCHAR U+00AE
ENCODING 174
SWIDTH 480 0
DWIDTH 7 0
BBX 7 14 0 -3
BITMAP
00
00
38
44
B2
AA
B2
AA
AA
44
38
00
00
00
ENDCHAR
STARTCHAR U+00AF
ENCODING 175
SWIDTH 480 0
DWIDTH 7 0
BBX 7 14 0 -3
BITMAP
00
7C
00
00
00
00
00
00
00
00
00
00
00
00
ENDCHAR
STARTCHAR U+00B0
ENCODING 176
SWIDTH 480 0
DWIDTH 7 0
BBX 7 14 0 -3
BITMAP
00
00
30
48
48
30
00
00
00
00
00
00
00
00
ENDCHAR
STARTCHAR U+00B1
ENCODING 177
SWIDTH 480 0
DWIDTH 7 0
BBX 7 14 0 -3
BITMAP
00
00
00
10
10
7C
10
10
7C
00
00
00
00
00
ENDCHAR
STARTCHAR U+00B2
ENCODING 178
SWIDTH 480 0
DWIDTH 7 0
BBX 7 14 0 -3
BITMAP
00
00
38
04
18
20
3C
00
00
00
00
00
00
00
ENDCHAR
STARTCHAR U+00B3
ENCODING 179
SWIDTH 480 0
DWIDTH 7 0
BBX 7 14 0 -3
BITMAP
00
00
38
04
18
04
38
00
00
00
00
00
00
00
ENDCHAR
STARTCHAR U+00B4
ENCODING 180
SWIDTH 480 0
DWIDTH 7 0
BBX 7 14 0 -3
BITMAP
00
18
30
00
00
00
00
00
00
00
00
00
00
00
ENDCHAR
STARTCHAR U+00B5
ENCODING 181
SWIDTH 480 0
DWIDTH 7 0
BBX 7 14 0 -3
BITMAP
00
00
00
00
00
44
44
44
44
64
58
40
40
40
ENDCHAR
STARTCHAR U+00B6
ENCODING 182
SWIDTH 480 0
DWIDTH 7 0
BBX 7 14 0 -3
BITMAP
00
00
00
3C
74
74
74
34
14
14
14
14
14
00
ENDCHAR
STARTCHAR U+00B7
ENCODING 183
SWIDTH 480 0
DWIDTH 7 0
BBX 7 14 0 -3
BITMAP
00
00
00
00
00
30
30
00
00
00
00
00
00
00
ENDCHAR
STARTCHAR U+00B8
ENCODING 184
SWIDTH 480 0
DWIDTH 7 0
BBX 7 14 0 -3
BITMAP
00
00
00
00
00
00
00
00
00
00
00
10
60
00
ENDCHAR
STARTCHAR U+00B9
ENCODING 185
SWIDTH 480 0
DWIDTH 7 0
BBX 7 14 0 -3
BITMAP
00
00
10
30
10
10
38
00
00
00
00
00
00
00
ENDCHAR
STARTCHAR U+00BA
ENCODING 186
SWIDTH 480 0
DWIDTH 7 0
BBX 7 14 0 -3
BITMAP
00
00
38
44
44
44
38
00
7C
00
00
00
00
00
ENDCHAR
STARTCHAR U+00BB
ENCODING 187
SWIDTH 480 0
DWIDTH 7 0
BBX 7 14 0 -3
BITMAP
00
00
00
00
00
90
48
24
48
90
00
00
00
00
ENDCHAR
STARTCHAR U+00BC
ENCODING 188
SWIDTH 480 0
DWIDTH 7 0
BBX 7 14 0 -3
BITMAP
00
00
40
C0
44
48
54
2C
54
9C
04
00
00
00
ENDCHAR
STARTCHAR U+00BD
ENCODING 189
SWIDTH 480 0
DWIDTH 7 0
BBX 7 14 0 -3
BITMAP
00
00
40
C0
44
48
58
24
48
90
1C
00
00
00
ENDCHAR
STARTCHAR U+00BE
ENCODING 190
SWIDTH 480 0
DWIDTH 7 0
BBX 7 14 0 -3
BITMAP
00
00
C0
20
44
28
D4
2C
54
9C
04
00
00
00
ENDCHAR
STARTCHAR U+00BF
ENCODING 191
SWIDTH 480 0
DWIDTH 7 0
BBX 7 14 0 -3
BITMAP
00
00
10
10
00
10
20
40
44
44
38
00
00
00
ENDCHAR
STARTCHAR U+00C0
ENCODING 192
SWIDTH 480 0
DWIDTH 7 0
BBX 7 14 0 -3
BITMAP
20
10
00
38
44
44
44
7C
44
44
44
00
00
00
ENDCHAR
STARTCHAR U+00C1
ENCODING 193
SWIDTH 480 0
DWIDTH 7 0
BBX 7 14 0 -3
BITMAP
08
10
00
38
44
44
44
7C
44
44
44
00
00
00
ENDCHAR
STARTCHAR U+00C2
ENCODING 194
SWIDTH 480 0
DWIDTH 7 0
BBX 7 14 0 -3
BITMAP
10
28
00
38
44
44
44
7C
44
44
44
00
00
00
ENDCHAR
STARTCHAR U+00C3
ENCODING 195
SWIDTH 480 0
DWIDTH 7 0
BBX 7 14 0 -3
BITMAP
34
58
00
38
44
44
44
7C
44
44
44
00
00
00
ENDCHAR
STARTCHAR U+00C4
ENCODING 196
SWIDTH 480 0
DWIDTH 7 0
BBX 7 14 0 -3
BITMAP
00
28
00
38
44
44
44
7C
44
44
44
00
00
00
ENDCHAR
STARTCHAR U+00C5
ENCODING 197
SWIDTH 480 0
DWIDTH 7 0
BBX 7 14 0 -3
BITMAP
10
28
10
38
44
44
44
7C
44
44
44
00
00
00
ENDCHAR
STARTCHAR U+00C6
ENCODING 198
SWIDTH 480 0
DWIDTH 7 0
BBX 7 14 0 -3
BITMAP
00
00
1E
28
28
48
4E
78
88
88
8E
00
00
00
ENDCHAR
STARTCHAR U+00C7
ENCODING 199
SWIDTH 480 0
DWIDTH 7 0
BBX 7 14 0 -3
BITMAP
00
00
1C
20
40
40
40
40
40
20
1C
08
30
00
ENDCHAR
STARTCHAR U+00C8
ENCODING 200
SWIDTH 480 0
DWIDTH 7 0
BBX 7 14 0 -3
BITMAP
20
10
00
7C
40
40
78
40
40
40
7C
00
00
00
ENDCHAR
STARTCHAR U+00C9
ENCODING 201
SWIDTH 480 0
DWIDTH 7 0
BBX 7 14 0 -3
BITMAP
08
10
00
7C
40
40
78
40
40
40
7C
00
00
00
ENDCHAR
STARTCHAR U+00CA
ENCODING 202
SWIDTH 480 0
DWIDTH 7 0
BBX 7 14 0 -3
BITMAP
10
28
00
7C
40
40
78
40
40
40
7C
00
00
00
ENDCHAR
STARTCHAR U+00CB
ENCODING 203
SWIDTH 480 0
DWIDTH 7 0
BBX 7 14 0 -3
BITMAP
28
00
7C
40
40
40
78
40
40
40
7C
00
00
00
ENDCHAR
STARTCHAR U+00CC
ENCODING 204
SWIDTH 480 0
DWIDTH 7 0
BBX 7 14 0 -3
BITMAP
20
10
00
7C
10
10
10
10
10
10
7C
00
00
00
ENDCHAR
STARTCHAR U+00CD
ENCODING 205
SWIDTH 480 0
DWIDTH 7 0
BBX 7 14 0 -3
BITMAP
08
10
00
7C
10
10
10
10
10
10
7C
00
00
00
ENDCHAR
STARTCHAR U+00CE
ENCODING 206
SWIDTH 480 0
DWIDTH 7 0
BBX 7 14 0 -3
BITMAP
10
28
00
7C
10
10
10
10
10
10
7C
00
00
00
ENDCHAR
STARTCHAR U+00CF
ENCODING 207
SWIDTH 480 0
DWIDTH 7 0
BBX 7 14 0 -3
BITMAP
28
00
7C
10
10
10
10
10
10
10
7C
00
00
00
ENDCHAR
STARTCHAR U+00D0
ENCODING 208
SWIDTH 480 0
DWIDTH 7 0
BBX 7 14 0 -3
BITMAP
00
00
70
48
44
44
E4
44
44
48
70
00
00
00
ENDCHAR
STARTCHAR U+00D1
ENCODING 209
SWIDTH 480 0
DWIDTH 7 0
BBX 7 14 0 -3
BITMAP
34
58
00
44
64
64
54
54
4C
4C
44
00
00
00
ENDCHAR
STARTCHAR U+00D2
ENCODING 210
SWIDTH 480 0
DWIDTH 7 0
BBX 7 14 0 -3
BITMAP
20
10
00
38
44
44
44
44
44
44
38
00
00
00
ENDCHAR
STARTCHAR U+00D3
ENCODING 211
SWIDTH 480 0
DWIDTH 7 0
BBX 7 14 0 -3
BITMAP
08
10
00
38
44
44
44
44
44
44
38
00
00
00
ENDCHAR
STARTCHAR U+00D4
ENCODING 212
SWIDTH 480 0
DWIDTH 7 0
BBX 7 14 0 -3
BITMAP
10
28
00
38
44
44
44
44
44
44
38
00
00
00
ENDCHAR
STARTCHAR U+00D5
ENCODING 213
SWIDTH 480 0
DWIDTH 7 0
BBX 7 14 0 -3
BITMAP
34
58
00
38
44
44
44
44
44
44
38
00
00
00
ENDCHAR
STARTCHAR U+00D6
ENCODING 214
SWIDTH 480 0
DWIDTH 7 0
BBX 7 14 0 -3
BITMAP
28
00
38
44
44
44
44
44
44
44
38
00
00
00
ENDCHAR
STARTCHAR U+00D7
ENCODING 215
SWIDTH 480 0
DWIDTH 7 0
BBX 7 14 0 -3
BITMAP
00
00
00
00
00
44
28
10
28
44
00
00
00
00
ENDCHAR
STARTCHAR U+00D8
ENCODING 216
SWIDTH 480 0
DWIDTH 7 0
BBX 7 14 0 -3
BITMAP
00
00
14
28
4C
54
54
54
64
28
50
00
00
00
ENDCHAR
STARTCHAR U+00D9
ENCODING 217
SWIDTH 480 0
DWIDTH 7 0
BBX 7 14 0 -3
BITMAP
20
10
44
44
44
44
44
44
44
44
38
00
00
00
ENDCHAR
STARTCHAR U+00DA
ENCODING 218
SWIDTH 480 0
DWIDTH 7 0
BBX 7 14 0 -3
BITMAP
08
10
44
44
44
44
44
44
44
44
38
00
00
00
ENDCHAR
STARTCHAR U+00DB
ENCODING 219
SWIDTH 480 0
DWIDTH 7 0
BBX 7 14 0 -3
BITMAP
10
28
00
44
44
44
44
44
44
44
38
00
00
00
ENDCHAR
STARTCHAR U+00DC
ENCODING 220
SWIDTH 480 0
DWIDTH 7 0
BBX 7 14 0 -3
BITMAP
28
00
44
44
44
44
44
44
44
44
38
00
00
00
ENDCHAR
STARTCHAR U+00DD
ENCODING 221
SWIDTH 480 0
DWIDTH 7 0
BBX 7 14 0 -3
BITMAP
08
10
44
44
44
28
28
10
10
10
10
00
00
00
ENDCHAR
STARTCHAR U+00DE
ENCODING 222
SWIDTH 480 0
DWIDTH 7 0
BBX 7 14 0 -3
BITMAP
00
00
40
40
78
44
44
44
78
40
40
00
00
00
ENDCHAR
STARTCHAR U+00DF
ENCODING 223
SWIDTH 480 0
DWIDTH 7 0
BBX 7 14 0 -3
BITMAP
00
30
48
48
48
50
48
44
44
44
58
00
00
00
ENDCHAR
STARTCHAR U+00E0
ENCODING 224
SWIDTH 480 0
DWIDTH 7 0
BBX 7 14 0 -3
BITMAP
00
20
10
00
38
04
04
3C
44
44
3C
00
00
00
ENDCHAR
STARTCHAR U+00E1
ENCODING 225
SWIDTH 480 0
DWIDTH 7 0
BBX 7 14 0 -3
BITMAP
00
08
10
00
38
04
04
3C
44
44
3C
00
00
00
ENDCHAR
STARTCHAR U+00E2
ENCODING 226
SWIDTH 480 0
DWIDTH 7 0
BBX 7 14 0 -3
BITMAP
00
10
28
00
38
04
04
3C
44
44
3C
00
00
00
ENDCHAR
STARTCHAR U+00E3
ENCODING 227
SWIDTH 480 0
DWIDTH 7 0
BBX 7 14 0 -3
BITMAP
00
34
58
00
38
04
04
3C
44
44
3C
00
00
00
ENDCHAR
STARTCHAR U+00E4
ENCODING 228
SWIDTH 480 0
DWIDTH 7 0
BBX 7 14 0 -3
BITMAP
00
00
28
00
38
04
04
3C
44
44
3C
00
00
00
ENDCHAR
STARTCHAR U+00E5
ENCODING 229
SWIDTH 480 0
DWIDTH 7 0
BBX 7 14 0 -3
BITMAP
00
10
28
10
38
04
04
3C
44
44
3C
00
00
00
ENDCHAR
STARTCHAR U+00E6
ENCODING 230
SWIDTH 480 0
DWIDTH 7 0
BBX 7 14 0 -3
BITMAP
00
00
00
00
38
54
14
3C
50
54
38
00
00
00
ENDCHAR
STARTCHAR U+00E7
ENCODING 231
SWIDTH 480 0
DWIDTH 7 0
BBX 7 14 0 -3
BITMAP
00
00
00
00
1C
20
40
40
40
20
1C
08
30
00
ENDCHAR
STARTCHAR U+00E8
ENCODING 232
SWIDTH 480 0
DWIDTH 7 0
BBX 7 14 0 -3
BITMAP
00
20
10
00
38
44
44
7C
40
40
3C
00
00
00
ENDCHAR
STARTCHAR U+00E9
ENCODING 233
SWIDTH 480 0
DWIDTH 7 0
BBX 7 14 0 -3
BITMAP
00
10
20
00
38
44
44
7C
40
40
3C
00
00
00
ENDCHAR
STARTCHAR U+00EA
ENCODING 234
SWIDTH 480 0
DWIDTH 7 0
BBX 7 14 0 -3
BITMAP
00
10
28
00
38
44
44
7C
40
40
3C
00
00
00
ENDCHAR
STARTCHAR U+00EB
ENCODING 235
SWIDTH 480 0
DWIDTH 7 0
BBX 7 14 0 -3
BITMAP
00
00
28
00
38
44
44
7C
40
40
3C
00
00
00
ENDCHAR
STARTCHAR U+00EC
ENCODING 236
SWIDTH 480 0
DWIDTH 7 0
BBX 7 14 0 -3
BITMAP
00
20
10
00
30
10
10
10
10
10
10
00
00
00
ENDCHAR
STARTCHAR U+00ED
ENCODING 237
SWIDTH 480 0
DWIDTH 7 0
BBX 7 14 0 -3
BITMAP
00
10
20
00
30
10
10
10
10
10
10
00
00
00
ENDCHAR
STARTCHAR U+00EE
ENCODING 238
SWIDTH 480 0
DWIDTH 7 0
BBX 7 14 0 -3
BITMAP
00
10
28
00
30
10
10
10
10
10
10
00
00
00
ENDCHAR
STARTCHAR U+00EF
ENCODING 239
SWIDTH 480 0
DWIDTH 7 0
BBX 7 14 0 -3
BITMAP
00
00
28
00
30
10
10
10
10
10
10
00
00
00
ENDCHAR
STARTCHAR U+00F0
ENCODING 240
SWIDTH 480 0
DWIDTH 7 0
BBX 7 14 0 -3
BITMAP
00
28
10
28
08
38
44
44
44
44
38
00
00
00
ENDCHAR
STARTCHAR U+00F1
ENCODING 241
SWIDTH 480 0
DWIDTH 7 0
BBX 7 14 0 -3
BITMAP
00
34
58
00
58
64
44
44
44
44
44
00
00
00
ENDCHAR
STARTCHAR U+00F2
ENCODING 242
SWIDTH 480 0
DWIDTH 7 0
BBX 7 14 0 -3
BITMAP
00
20
10
00
38
44
44
44
44
44
38
00
00
00
ENDCHAR
STARTCHAR U+00F3
ENCODING 243
SWIDTH 480 0
DWIDTH 7 0
BBX 7 14 0 -3
BITMAP
00
08
10
00
38
44
44
44
44
44
38
00
00
00
ENDCHAR
STARTCHAR U+00F4
ENCODING 244
SWIDTH 480 0
DWIDTH 7 0
BBX 7 14 0 -3
BITMAP
00
10
28
00
38
44
44
44
44
44
38
00
00
00
ENDCHAR
STARTCHAR U+00F5
ENCODING 245
SWIDTH 480 0
DWIDTH 7 0
BBX 7 14 0 -3
BITMAP
00
34
58
00
38
44
44
44
44
44
38
00
00
00
ENDCHAR
STARTCHAR U+00F6
ENCODING 246
SWIDTH 480 0
DWIDTH 7 0
BBX 7 14 0 -3
BITMAP
00
00
28
00
38
44
44
44
44
44
38
00
00
00
ENDCHAR
STARTCHAR U+00F7
ENCODING 247
SWIDTH 480 0
DWIDTH 7 0
BBX 7 14 0 -3
BITMAP
00
00
00
30
30
00
FC
00
30
30
00
00
00
00
ENDCHAR
STARTCHAR U+00F8
ENCODING 248
SWIDTH 480 0
DWIDTH 7 0
BBX 7 14 0 -3
BITMAP
00
00
00
00
04
38
4C
54
54
64
38
40
00
00
ENDCHAR
STARTCHAR U+00F9
ENCODING 249
SWIDTH 480 0
DWIDTH 7 0
BBX 7 14 0 -3
BITMAP
00
20
10
00
44
44
44
44
44
4C
34
00
00
00
ENDCHAR
STARTCHAR U+00FA
ENCODING 250
SWIDTH 480 0
DWIDTH 7 0
BBX 7 14 0 -3
BITMAP
00
08
10
00
44
44
44
44
44
4C
34
00
00
00
ENDCHAR
STARTCHAR U+00FB
ENCODING 251
SWIDTH 480 0
DWIDTH 7 0
BBX 7 14 0 -3
BITMAP
00
10
28
00
44
44
44
44
44
4C
34
00
00
00
ENDCHAR
STARTCHAR U+00FC
ENCODING 252
SWIDTH 480 0
DWIDTH 7 0
BBX 7 14 0 -3
BITMAP
00
00
28
00
44
44
44
44
44
4C
34
00
00
00
ENDCHAR
STARTCHAR U+00FD
ENCODING 253
SWIDTH 480 0
DWIDTH 7 0
BBX 7 14 0 -3
BITMAP
00
08
10
00
44
44
44
28
28
28
10
10
20
40
ENDCHAR
STARTCHAR U+00FE
ENCODING 254
SWIDTH 480 0
DWIDTH 7 0
BBX 7 14 0 -3
BITMAP
00
00
40
40
40
70
48
44
44
48
70
40
40
40
ENDCHAR
STARTCHAR U+00FF
ENCODING 255
SWIDTH 480 0
DWIDTH 7 0
BBX 7 14 0 -3
BITMAP
00
00
28
00
44
44
44
28
28
28
10
10
20
40
ENDCHAR
ENDFONT
